Coordinates
version=1
nRows=23
nColumns=38
inDegrees=no

Units are S.I. units (second, meters, Newtons, ...)
If the header above contains a line with 'inDegrees', this indicates whether rotational values are in degrees (yes) or radians (no).

endheader
time	pelvis_tilt	pelvis_list	pelvis_rotation	pelvis_tx	pelvis_ty	pelvis_tz	hip_flexion_r	hip_adduction_r	hip_rotation_r	knee_angle_r	ankle_angle_r	subtalar_angle_r	mtp_angle_r	hip_flexion_l	hip_adduction_l	hip_rotation_l	knee_angle_l	ankle_angle_l	subtalar_angle_l	mtp_angle_l	lumbar_extension	lumbar_bending	lumbar_rotation	arm_flex_r	arm_add_r	arm_rot_r	elbow_flex_r	pro_sup_r	wrist_flex_r	wrist_dev_r	arm_flex_l	arm_add_l	arm_rot_l	elbow_flex_l	pro_sup_l	wrist_flex_l	wrist_dev_l
0.7	-2.2364	1.41448	-2.61245	0.724236	-0.019124	0.916671	-0.205866	-0.323396	-0.265324	0.749492	-0.0496609	0	0	0.221443	0.102786	-0.412461	0.283602	0.0113822	0	0	-0.143843	-0.155437	0.0848241	0.0239821	-0.343976	0.382969	0.737126	1.32903	0	0	-0.0870108	-0.30306	0.676939	0.614943	0.883292	0	0
0.71	-2.17642	1.41452	-2.66803	0.72169	-0.00766608	0.917159	-0.168222	-0.337204	-0.248759	0.804366	-0.103714	0	0	0.213746	0.115704	-0.409024	0.275178	0.0135769	0	0	-0.131036	-0.15984	0.0776685	0.0167683	-0.344825	0.400249	0.729784	1.32161	0	0	-0.0830715	-0.310604	0.683891	0.620289	0.875466	0	0
0.72	-2.12621	1.41367	-2.71451	0.719366	0.00344861	0.917802	-0.130623	-0.348937	-0.230233	0.858248	-0.153168	0	0	0.204535	0.127774	-0.405121	0.266865	0.0168396	0	0	-0.120428	-0.164005	0.0709351	0.0103365	-0.345539	0.416375	0.723279	1.3166	0	0	-0.0783881	-0.318428	0.688954	0.626527	0.872357	0	0
0.73	-2.09543	1.41207	-2.74214	0.717265	0.0141602	0.918751	-0.0951846	-0.358089	-0.211367	0.909861	-0.19288	0	0	0.192723	0.138124	-0.400503	0.2597	0.0222998	0	0	-0.114336	-0.167426	0.0640329	0.00522623	-0.345866	0.430317	0.717627	1.31544	0	0	-0.0726192	-0.326043	0.691307	0.632982	0.871756	0	0
0.74	-2.08546	1.41011	-2.74964	0.715335	0.0246094	0.920055	-0.0634729	-0.364683	-0.193545	0.95629	-0.219122	0	0	0.177584	0.146685	-0.394834	0.252628	0.0286194	0	0	-0.112459	-0.169816	0.0571207	0.00164347	-0.346223	0.443901	0.71183	1.31467	0	0	-0.0663166	-0.333579	0.691253	0.640388	0.872188	0	0
0.75	-2.09941	1.40849	-2.73339	0.713507	0.0348577	0.921756	-0.0368953	-0.367928	-0.176566	0.997712	-0.22684	0	0	0.158317	0.152857	-0.388056	0.244763	0.034614	0	0	-0.11506	-0.170111	0.0500512	-0.000964351	-0.346864	0.456732	0.706278	1.31475	0	0	-0.059392	-0.340396	0.688527	0.64787	0.874803	0	0
0.76	-2.12986	1.4083	-2.69982	0.711682	0.0448108	0.923741	-0.0128632	-0.367444	-0.160616	1.03721	-0.217035	0	0	0.136969	0.156057	-0.380812	0.236614	0.0403188	0	0	-0.120917	-0.167512	0.0420903	-0.00300486	-0.347419	0.466793	0.701081	1.31682	0	0	-0.0517608	-0.345454	0.681003	0.653394	0.883499	0	0
0.77	-2.1655	1.40957	-2.66031	0.709854	0.0544765	0.92582	0.0113931	-0.364096	-0.145789	1.07603	-0.194333	0	0	0.115431	0.157174	-0.373536	0.227846	0.0458372	0	0	-0.127544	-0.162686	0.0335315	-0.0048217	-0.347101	0.472281	0.69517	1.32286	0	0	-0.0434323	-0.349341	0.671085	0.657144	0.89424	0	0
0.78	-2.2024	1.41198	-2.61892	0.708011	0.0639278	0.927877	0.035607	-0.35881	-0.133403	1.1109	-0.16762	0	0	0.0940765	0.157071	-0.366514	0.217754	0.0505767	0	0	-0.134033	-0.156209	0.0242703	-0.0064309	-0.346328	0.475121	0.689211	1.3314	0	0	-0.0350903	-0.352487	0.659381	0.659869	0.907549	0	0
0.79	-2.24332	1.4151	-2.57319	0.706155	0.0733327	0.929916	0.0583351	-0.352035	-0.123777	1.1392	-0.143738	0	0	0.0720291	0.156135	-0.359303	0.20572	0.0543251	0	0	-0.140349	-0.148222	0.0150216	-0.0087418	-0.34567	0.475681	0.684091	1.342	0	0	-0.026865	-0.354724	0.645528	0.661674	0.922968	0	0
0.8	-2.28896	1.41906	-2.52243	0.704293	0.0826899	0.931891	0.0800466	-0.343649	-0.11635	1.16179	-0.122813	0	0	0.0499052	0.154078	-0.351771	0.192599	0.0575407	0	0	-0.146134	-0.138596	0.00567051	-0.0116538	-0.345423	0.475152	0.680064	1.35253	0	0	-0.0189137	-0.356372	0.6305	0.663145	0.93603	0	0
0.81	-2.33695	1.42359	-2.46874	0.70244	0.0919778	0.93377	0.101386	-0.334254	-0.111389	1.17988	-0.102619	0	0	0.0284738	0.150996	-0.344174	0.179391	0.0605845	0	0	-0.15111	-0.127976	-0.00428319	-0.0148212	-0.345444	0.474367	0.676961	1.36088	0	0	-0.0115877	-0.357849	0.613995	0.664974	0.947474	0	0
0.82	-2.38393	1.4285	-2.41541	0.700593	0.101099	0.935524	0.122597	-0.324551	-0.109033	1.19327	-0.0842056	0	0	0.00861314	0.147223	-0.336133	0.166757	0.0633523	0	0	-0.155038	-0.117073	-0.014534	-0.0182786	-0.345794	0.474144	0.674994	1.36445	0	0	-0.00418469	-0.359463	0.597249	0.667368	0.957533	0	0
0.83	-2.42903	1.43387	-2.36415	0.698836	0.110056	0.937111	0.14414	-0.314514	-0.108177	1.20189	-0.067832	0	0	-0.00965377	0.142928	-0.32796	0.15438	0.0658617	0	0	-0.157663	-0.106141	-0.0241311	-0.022332	-0.346314	0.473311	0.674285	1.36328	0	0	0.00323428	-0.361027	0.579818	0.670364	0.96602	0	0
0.84	-2.47037	1.43962	-2.31706	0.69719	0.118873	0.938505	0.166293	-0.304623	-0.108598	1.20611	-0.0529516	0	0	-0.0261847	0.138372	-0.32071	0.142454	0.0680771	0	0	-0.15895	-0.0956074	-0.0331257	-0.0268014	-0.34693	0.472196	0.674616	1.35963	0	0	0.0101983	-0.362621	0.561241	0.674284	0.972722	0	0
0.85	-2.51235	1.4451	-2.26872	0.695578	0.127548	0.939779	0.187681	-0.295411	-0.111394	1.20617	-0.0380139	0	0	-0.0419085	0.133732	-0.313244	0.131078	0.069784	0	0	-0.160103	-0.0854961	-0.0424506	-0.0313974	-0.347633	0.471682	0.675716	1.35558	0	0	0.0170568	-0.364656	0.542693	0.679554	0.977665	0	0
0.86	-2.55778	1.45	-2.21656	0.69403	0.136143	0.940982	0.207612	-0.286639	-0.11629	1.2018	-0.0238346	0	0	-0.0576857	0.129044	-0.305264	0.11975	0.0710142	0	0	-0.161506	-0.0757011	-0.0516847	-0.0363537	-0.348209	0.470087	0.677681	1.34963	0	0	0.023917	-0.367052	0.524614	0.68599	0.981432	0	0
0.87	-2.60676	1.45447	-2.1606	0.692547	0.144665	0.942104	0.225934	-0.277988	-0.122979	1.19284	-0.00989381	0	0	-0.0733365	0.124206	-0.296525	0.108548	0.0716764	0	0	-0.16307	-0.0660444	-0.0608804	-0.0416137	-0.348268	0.46619	0.680187	1.34158	0	0	0.0305485	-0.369678	0.50652	0.693635	0.984273	0	0
0.88	-2.65677	1.45852	-2.10403	0.691161	0.153058	0.943108	0.243458	-0.26962	-0.130463	1.17981	0.0044779	0	0	-0.0884024	0.119407	-0.28798	0.0977962	0.0719967	0	0	-0.164672	-0.0567974	-0.0693011	-0.0467748	-0.348239	0.4618	0.682951	1.33134	0	0	0.0370592	-0.372184	0.488018	0.70212	0.987097	0	0
0.89	-2.7077	1.46211	-2.04661	0.689854	0.1614	0.943987	0.259891	-0.261803	-0.139262	1.1629	0.0199443	0	0	-0.103077	0.114602	-0.279428	0.0875522	0.0724483	0	0	-0.166117	-0.0480451	-0.0767841	-0.0521982	-0.348127	0.457282	0.685431	1.3239	0	0	0.0439778	-0.374594	0.470565	0.710806	0.989181	0	0
0.9	-2.76029	1.46518	-1.98757	0.688645	0.169753	0.944741	0.274818	-0.254392	-0.149334	1.14206	0.0359959	0	0	-0.117699	0.109703	-0.270903	0.0776986	0.0733474	0	0	-0.167605	-0.0396212	-0.084032	-0.0573422	-0.348038	0.453337	0.687707	1.31779	0	0	0.0504438	-0.377038	0.453333	0.720109	0.991095	0	0
0.91	-2.81672	1.46731	-1.925	0.687566	0.178132	0.945434	0.287635	-0.246983	-0.160169	1.11717	0.0510158	0	0	-0.133004	0.104588	-0.262732	0.0678289	0.0745106	0	0	-0.169701	-0.0314356	-0.0907186	-0.0622906	-0.347514	0.448584	0.689384	1.31306	0	0	0.0566357	-0.37958	0.436848	0.729907	0.993049	0	0
0.92	-2.8767	1.46847	-1.85971	0.686627	0.186519	0.94607	0.298408	-0.239363	-0.171516	1.0881	0.0641793	0	0	-0.149307	0.0993859	-0.254731	0.0573979	0.0758534	0	0	-0.172327	-0.0233846	-0.0961657	-0.0670004	-0.34668	0.443118	0.690246	1.30975	0	0	0.0631076	-0.381834	0.421676	0.739345	0.994085	0	0
